<svg width="128" height="46" viewBox="0 0 128 46" fill="none" xmlns="http://www.w3.org/2000/svg">
<path d="M20.0711 0.181396C9.08622 0.181396 0.181519 9.08557 0.181519 20.071C0.181519 31.0564 9.08622 39.963 20.0711 39.963C31.0565 39.963 39.9631 31.0564 39.9631 20.071C39.9631 9.08557 31.0565 0.181396 20.0711 0.181396ZM27.46 10.591C27.3264 25.5575 12.8464 32.0864 12.8464 32.0864C13.6909 17.6027 27.46 10.591 27.46 10.591Z" fill="#259CD9"/>
<path d="M66.9358 21.2193C66.9358 17.8068 64.1572 15.0282 60.7452 15.0282C57.3326 15.0282 54.5541 17.8068 54.5541 21.2193C54.5541 24.6313 57.3326 27.4104 60.7452 27.4104C64.1572 27.4104 66.9358 24.6313 66.9358 21.2193ZM71.4209 21.2676C71.4209 27.1667 66.6437 31.9438 60.7452 31.9438C54.8461 31.9438 50.069 27.1667 50.069 21.2676C50.069 15.4184 54.8461 10.6408 60.7452 10.6408C66.6437 10.6408 71.4209 15.4184 71.4209 21.2676Z" fill="#259CD9"/>
<path d="M93.9894 21.1704V31.0661C93.9894 31.5536 93.5996 31.9927 93.1122 31.9927H89.7968C89.3094 31.9927 88.968 31.5536 88.968 31.0661V21.2193C88.968 17.5142 87.0671 15.9542 84.3862 15.9542C82.2894 15.9542 80.6323 17.2216 79.8523 19.0742V30.8713C79.8523 31.5047 79.3648 31.9927 78.7314 31.9927H75.9035C75.3188 31.9927 74.8314 31.5047 74.8314 30.8713V11.7133C74.8314 11.0798 75.3188 10.6407 75.9035 10.6407H78.7314C79.3648 10.6407 79.8523 11.0798 79.8523 11.7133V12.6393C81.3639 11.1282 82.8262 11.031 84.8248 11.031C90.5773 11.031 93.9894 15.223 93.9894 21.1704Z" fill="#259CD9"/>
<path d="M102.665 11.6644V43.9357C102.665 44.5209 102.177 45.0083 101.592 45.0083H98.716C98.1314 45.0083 97.6435 44.5209 97.6435 43.9357V11.6644C97.6435 11.0798 98.1314 10.5918 98.716 10.5918H101.592C102.177 10.5918 102.665 11.0798 102.665 11.6644ZM97.3998 3.231C97.3998 1.71985 98.57 0.549599 100.082 0.549599C101.544 0.549599 102.714 1.71985 102.714 3.231C102.714 4.69329 101.544 5.86354 100.082 5.86354C98.57 5.86354 97.3998 4.69329 97.3998 3.231Z" fill="#259CD9"/>
<path d="M110.367 21.4141C110.367 25.4118 113.389 27.7513 117.045 27.4593C124.601 26.8741 124.601 15.9542 117.045 15.4179C113.389 15.1253 110.367 17.4165 110.367 21.4141ZM123.821 10.6896H127.136C127.526 10.6896 127.818 10.9822 127.818 11.3719V30.9201C127.818 31.4564 127.429 31.8461 126.892 31.8461H123.87C123.48 31.8461 123.187 31.5536 123.187 31.1638V29.1164C123.187 28.8727 122.895 28.775 122.749 28.9699C121.335 30.8713 118.459 31.9927 116.46 31.9927C110.562 32.041 106.174 28.4341 106.174 21.4141C106.174 14.5407 110.757 10.9333 116.558 10.9822C118.849 10.9822 121.189 12.0547 122.505 13.6147C122.7 13.8584 123.09 13.7119 123.09 13.4193V11.4208C123.09 11.031 123.431 10.6896 123.821 10.6896Z" fill="#259CD9"/>
</svg>
